<svg id="_x31__x2C_5" enable-background="new 0 0 24 24" height="512" viewBox="0 0 24 24" width="512" xmlns="http://www.w3.org/2000/svg"><path d="m15.121 22.679c-1.064-1.064-1.096-2.095-1.096-2.146-.002-.223-.182-.403-.405-.403h-3.256c-.223 0-.405.184-.405.407 0 .044-.014 1.075-1.08 2.141-.116.116-.151.29-.088.441.062.151.21.25.374.25h5.67c.164 0 .312-.098.374-.25s.028-.324-.088-.44z" fill="#90a4ae"/><path d="m23.25 16.75v2.5c0 .55-.45 1-1 1h-20.5c-.55 0-1-.45-1-1v-2.5z" fill="#607d8b"/><path d="m23.25 5.75v11h-22.5v-11c0-.55.45-1 1-1h20.5c.55 0 1 .45 1 1z" fill="#eceff1"/><path d="m20.56 12.145c-1.537 0-2.787-1.25-2.787-2.787v-3.895c0-.335.272-.608.608-.608h4.358c.335 0 .608.272.608.608v3.896c-.001 1.536-1.25 2.786-2.787 2.786z" fill="#64b5f6"/><path d="m14.935 12.145c-1.645 0-2.985-1.339-2.985-2.985v-3.697c0-.335.272-.608.608-.608h4.754c.335 0 .608.272.608.608v3.697c-.001 1.646-1.34 2.985-2.985 2.985z" fill="#2196f3"/><path d="m9.065 12.145c-1.645 0-2.985-1.339-2.985-2.985v-3.697c0-.335.272-.608.608-.608h4.754c.335 0 .608.272.608.608v3.697c0 1.646-1.339 2.985-2.985 2.985z" fill="#64b5f6"/><path d="m3.44 12.145c-1.537 0-2.787-1.25-2.787-2.787v-3.895c0-.335.272-.608.607-.608h4.36c.335 0 .608.272.608.608v3.896c-.001 1.536-1.251 2.786-2.788 2.786z" fill="#2196f3"/><path d="m20.56 13c-1.897 0-3.44-1.543-3.44-3.44v-4.81c0-.414.336-.75.75-.75h4.402c.953 0 1.728.775 1.728 1.729v3.831c0 1.897-1.543 3.44-3.44 3.44zm-1.94-7.5v4.06c0 1.07.87 1.94 1.94 1.94s1.94-.87 1.94-1.94v-3.831c0-.126-.102-.229-.228-.229z"/><path d="m14.935 13c-2.032 0-3.685-1.653-3.685-3.685v-4.565c0-.414.336-.75.75-.75h5.87c.414 0 .75.336.75.75v4.565c0 2.032-1.654 3.685-3.685 3.685zm-2.185-7.5v3.815c0 1.204.98 2.185 2.185 2.185s2.185-.98 2.185-2.185v-3.815z"/><path d="m9.065 13c-2.031 0-3.685-1.653-3.685-3.685v-4.565c0-.414.336-.75.75-.75h5.87c.414 0 .75.336.75.75v4.565c0 2.032-1.653 3.685-3.685 3.685zm-2.185-7.5v3.815c0 1.204.98 2.185 2.185 2.185s2.185-.98 2.185-2.185v-3.815z"/><path d="m3.44 13c-1.897 0-3.44-1.543-3.44-3.44v-3.831c0-.954.775-1.729 1.728-1.729h4.402c.414 0 .75.336.75.75v4.81c0 1.897-1.543 3.44-3.44 3.44zm-1.712-7.5c-.126 0-.228.103-.228.229v3.831c0 1.07.871 1.94 1.94 1.94s1.94-.87 1.94-1.94v-4.06z"/><path d="m22.25 21h-20.5c-.965 0-1.75-.785-1.75-1.75v-4.5c0-.414.336-.75.75-.75s.75.336.75.75v4.5c0 .138.112.25.25.25h20.5c.138 0 .25-.112.25-.25v-4.5c0-.414.336-.75.75-.75s.75.336.75.75v4.5c0 .965-.785 1.75-1.75 1.75z"/><path d="m23.25 17.5h-22.5c-.414 0-.75-.336-.75-.75s.336-.75.75-.75h22.5c.414 0 .75.336.75.75s-.336.75-.75.75z"/><path d="m15.25 24h-6.5c-.303 0-.577-.183-.693-.463s-.052-.602.163-.817c1.041-1.041 1.265-2.553 1.267-2.567.054-.411.435-.704.841-.646.411.054.7.431.646.841-.008.059-.147 1.066-.744 2.152h3.523c-.591-1.08-.738-2.088-.746-2.147-.057-.41.229-.788.64-.846.417-.058.788.229.846.639.007.045.232 1.469 1.184 2.487.195.136.323.361.323.617 0 .414-.336.75-.75.75z"/></svg>