<?xml version="1.0" encoding="iso-8859-1"?>
<!-- Generator: Adobe Illustrator 19.0.0, SVG Export Plug-In . SVG Version: 6.00 Build 0)  -->
<svg version="1.1" id="Capa_1" xmlns="http://www.w3.org/2000/svg" xmlns:xlink="http://www.w3.org/1999/xlink" x="0px" y="0px"
	 viewBox="0 0 496 496" style="enable-background:new 0 0 496 496;" xml:space="preserve">
<path style="fill:#DA1E34;" d="M496,369.4c0,27.2-21.5,49.1-47.7,49.1H51c-26.2,0-47.7-21.9-47.7-49.1V126.2
	C3.3,99,24.8,77.4,51,77.4h397.3c26.2,0,47.7,21.6,47.7,48.8V369.4z"/>
<path style="fill:#C40C27;" d="M48,77.4h400c26.4,0,48,21.6,48,48.8v243.2c0,27.2-21.6,49.1-48,49.1L48,77.4z"/>
<g>
	<path style="fill:#A30423;" d="M496,369.4c0,27.2-21.6,49.1-48,49.1H48c-26.4,0-48-21.9-48-49.1H496z"/>
	<path style="fill:#A30423;" d="M48,77.4h400c26.4,0,48,21.6,48,48.8V215L48,77.4z"/>
</g>
<path style="fill:#F4F4F4;" d="M0,123.4v245.3c0,27.6,21.2,49.8,47.2,49.8h93.5l27.5-9.5l-35.4-12.4l35.4-12.4l-35.4-12l35.4-12.8
	l-35.4-12.1l35.4-12.6l-35.4-12.1l35.4-12.6l-35.4-12.1l35.4-12.6l-35.4-12.1l35.4-12.6l-35.4-13.7l35.4-12.1l-35.4-12.6l35.4-12.1
	l-35.4-12.6l35.4-12.1l-35.4-12.6l35.4-12l-35.4-12.6l35.4-12l-35.4-12.4l35.4-12l-35.4-12.6l35.4-12l-27.5-9.6H47.2
	C25.5,76.9,1.7,94.9,0,123.4z"/>
<g>
	<polygon style="fill:#E1E1E1;" points="171.2,161.1 135.2,148.5 171.2,136.4 135.2,123.8 171.2,111.7 135.2,99.1 171.2,87 
		143.2,77.4 48,77.4 153.6,167 	"/>
	<path style="fill:#E1E1E1;" d="M135.2,396.5l36-12.4l-36-12l2-1H0c0,27.2,21.6,47.5,48,47.5h95.2l28-9.5L135.2,396.5z"/>
	<polygon style="fill:#E1E1E1;" points="135.2,99.1 171.2,87 143.2,77.4 112.8,77.4 141.6,87 104.8,99.1 141.6,111.7 104.8,123.8 
		141.6,136.4 104.8,148.5 141.6,161.1 104.8,173 141.6,185.6 104.8,197.7 141.6,210.3 104.8,222.3 141.6,234.9 104.8,247 
		141.6,260.7 104.8,273.3 141.6,285.3 104.8,297.9 141.6,310 104.8,322.6 141.6,334.6 104.8,347.2 141.6,359.3 104.8,372 
		141.6,384.1 104.8,396.5 141.6,409 112.8,418.5 143.2,418.5 171.2,409 135.2,396.5 171.2,384.1 135.2,372 171.2,359.3 135.2,347.2 
		171.2,334.6 135.2,322.6 171.2,310 135.2,297.9 171.2,285.3 135.2,273.3 171.2,260.7 135.2,247 171.2,234.9 135.2,222.3 
		171.2,210.3 135.2,197.7 171.2,185.6 135.2,173 171.2,161.1 135.2,148.5 171.2,136.4 135.2,123.8 171.2,111.7 	"/>
</g>
<g>
</g>
<g>
</g>
<g>
</g>
<g>
</g>
<g>
</g>
<g>
</g>
<g>
</g>
<g>
</g>
<g>
</g>
<g>
</g>
<g>
</g>
<g>
</g>
<g>
</g>
<g>
</g>
<g>
</g>
</svg>
