<?xml version="1.0" encoding="iso-8859-1"?>
<!-- Generator: Adobe Illustrator 19.0.0, SVG Export Plug-In . SVG Version: 6.00 Build 0)  -->
<svg version="1.1" id="Capa_1" xmlns="http://www.w3.org/2000/svg" xmlns:xlink="http://www.w3.org/1999/xlink" x="0px" y="0px"
	 viewBox="0 0 496 496" style="enable-background:new 0 0 496 496;" xml:space="preserve">
<path style="fill:#008000;" d="M0,304.4v64.8C0,396.4,21.6,418,48,418h400c26.4,0,48-21.6,48-48.8v-64.8H0z"/>
<path style="fill:#ECFFEB;" d="M448,77.2H48C21.6,77.2,0,98.8,0,126v64.8h496V126C496,98.8,474.4,77.2,448,77.2z"/>
<rect y="189.2" style="fill:#DB161B;" width="496" height="116"/>
<path style="fill:#016801;" d="M448,418c26.4,0,48-21.6,48-48.8v-64.8H315.2L448,418z"/>
<path style="fill:#DEF7DC;" d="M448,77.2H48l132.8,113.6H496V126C496,98.8,474.4,77.2,448,77.2z"/>
<polygon style="fill:#CC0917;" points="316,306 496,306 496,189.2 180,189.2 "/>
<path style="fill:#C9EAC5;" d="M448,77.2H48l370.4,113.6H496V126C496,98.8,474.4,77.2,448,77.2z"/>
<polygon style="fill:#B5081D;" points="496,214 496,189.2 414.4,189.2 "/>
<path style="fill:#015601;" d="M496,369.2c0,27.2-21.6,48.8-48,48.8H48c-26.4,0-48-21.6-48-48.8"/>
<path style="fill:#E73B36;" d="M122.4,77.2H48C21.6,77.2,0,98.8,0,126v64v0.8v114.4v0.8v64c0,27.2,21.6,48.8,48,48.8h74.4V77.2z"/>
<polygon style="fill:#DB2C2C;" points="122.4,189.2 0,189.2 0,190.8 0,304.4 0,306 122.4,306 "/>
<path style="fill:#CC2525;" d="M0,304.4v0.8v64C0,396.4,21.6,418,48,418h74.4V304.4H0z"/>
<path style="fill:#B70808;" d="M0,369.2C0,396.4,21.6,418,48,418h74.4v-48.8H0z"/>
<polygon style="fill:#CC2525;" points="122.4,77.2 48,77.2 122.4,140.4 "/>
<polygon style="fill:#B70808;" points="122.4,77.2 48,77.2 122.4,99.6 "/>
<path style="fill:#ECFFEB;" d="M96,193.2c-1.6-1.6-4-3.2-7.2-6.4l0,0H88c-4-3.2-9.6-8-16.8-15.2c-1.6-1.6-3.2-3.2-4-4
	c0-0.8,0-0.8,0-1.6l0,0l0,0l0,0l0,0l0,0c0-0.8,0-0.8,0-1.6v-1.6c0.8-1.6,2.4-2.4,3.2-4l0,0l0,0c0,1.6,1.6,2.4,4,2.4
	c1.6,0,3.2-0.8,4-1.6H80v1.6c0,0.8,0.8,1.6,1.6,1.6H96c0.8,0,1.6-0.8,1.6-1.6v-6.4c0-0.8-0.8-1.6-1.6-1.6H81.6
	c-0.8,0-1.6,0.8-1.6,1.6v1.6h-1.6c0-0.8-1.6-1.6-4-1.6l0,0c8.8-15.2,14.4-28,13.6-30.4c0,0,0,0,0-0.8l0,0c-2.4,0-10.4,12-20,28l0,0
	h0.8c0,0,0,0.8-0.8,0.8h-0.8v-1.6c0.8,0,1.6-0.8,1.6-2.4c0-0.8-0.8-1.6-1.6-2.4v-0.8l0,0v-1.6l0,0c-0.8,0-0.8,0-1.6,0l0,0l0,0
	c-0.8-0.8-1.6-1.6-1.6-1.6l0,0l0,0l0,0l0,0v-2.4h-6.4v2.4l0,0l0,0l0,0l0,0c0,0.8-0.8,1.6-0.8,1.6l0,0c-0.8,0-0.8,0-1.6,0l0,0v2.4
	c-0.8,0-1.6,0.8-1.6,2.4c0,0.8,0.8,1.6,1.6,2.4c0,0.8,0,0.8,0,1.6h-0.8c0,0,0-0.8-0.8-0.8h0.8l0,0c-9.6-16-17.6-28-20-28l0,0
	c0,0,0,0,0,0.8c-0.8,2.4,4.8,15.2,13.6,29.6c-1.6,0-3.2,0.8-4,1.6h-3.2v-0.8c0-0.8-0.8-1.6-1.6-1.6H25.6c-0.8,0-1.6,0.8-1.6,1.6v6.4
	c0,0.8,0.8,1.6,1.6,1.6H40c0.8,0,1.6-0.8,1.6-1.6v-1.6h1.6c0.8,0.8,2.4,1.6,4,1.6s3.2-0.8,4-1.6c0,0,0.8,0.8,1.6,0.8
	c0.8,0.8,1.6,1.6,2.4,2.4l0,0l0,0l0,0c0,0.8,0,1.6-0.8,1.6h-3.2l0,0l0,0c-0.8,0-2.4,0-4,0c-0.8,0-0.8,0-1.6,0l0,0l0,0
	c-0.8,0-0.8,0-1.6,0l0,0l0,0c-1.6,0-3.2,0-4.8,0l0,0l0,0c-0.8,0-0.8,0-1.6,0l0,0l0,0h-0.8l0,0l0,0h-2.4l0,0l0,0l0,0
	c-4,0.8-7.2,1.6-7.2,2.4c0,1.6,3.2,3.2,7.2,4l0,0l0,0l2.4,0.8l0,0l0,0c1.6,0,2.4,0.8,4,0.8l0,0l0,0h0.8l0,0l0,0c1.6,0,2.4,0.8,4,0.8
	l0,0l0,0c0.8,0,0.8,0,1.6,0c-5.6,4.8-9.6,8.8-13.6,12h-0.8l0,0c-2.4,2.4-4.8,4.8-7.2,6.4c-2.4,1.6-3.2,2.4-3.2,3.2
	c0,0,0,0.8,0.8,0.8c0,0,0.8,0,1.6,0c3.2,0,9.6-3.2,16-8.8l0,0l0,0c4.8-4,9.6-8,14.4-12.8c0.8,0,0.8,0,1.6,0l0,0l0,0
	c0.8,0,1.6,0,2.4,0l0,0l0,0c1.6,0,2.4-0.8,4-1.6l0,0l0,0l0.8-0.8l0.8,0.8c5.6,5.6,11.2,10.4,16,15.2l0,0l0,0c5.6,5.6,12,8.8,16,8.8
	c0.8,0,0.8,0,1.6,0c0,0,0.8,0,0.8-0.8C99.2,196.4,97.6,194.8,96,193.2z M68,152.4C68,153.2,67.2,153.2,68,152.4L68,152.4
	C67.2,152.4,68,152.4,68,152.4z M68,148.4c0,0.8,0,0.8-0.8,1.6v-2.4C68,146.8,68,147.6,68,148.4z M53.6,148.4c0-0.8,0-0.8,0.8-1.6
	L53.6,148.4c0.8,0,0.8,0.8,0.8,1.6C53.6,149.2,53.6,148.4,53.6,148.4z M54.4,152.4C54.4,152.4,54.4,153.2,54.4,152.4
	C54.4,153.2,54.4,153.2,54.4,152.4L54.4,152.4z"/>
<rect x="58.4" y="134.8" style="fill:#DEF7DC;" width="4.8" height="2.4"/>
<g>
	<path style="fill:#C9EAC5;" d="M56,128.4L56,128.4c0.8,0.8,1.6,1.6,3.2,1.6v1.6h4V130c1.6,0,2.4-0.8,3.2-2.4l0,0
		c0.8,0,1.6-0.8,1.6-1.6s-0.8-1.6-1.6-1.6c-0.8-0.8-1.6-2.4-4-2.4c0-0.8-0.8-1.6-1.6-1.6s-1.6,0.8-1.6,1.6c-1.6,0.8-3.2,1.6-3.2,3.2
		c-0.8,0-1.6,0.8-1.6,1.6C53.6,127.6,54.4,128.4,56,128.4z"/>
	<path style="fill:#C9EAC5;" d="M96,193.2c-1.6-1.6-4-3.2-7.2-6.4l0,0H88c-4-3.2-9.6-8-16.8-15.2c-1.6-1.6-3.2-3.2-4-4
		c0-0.8,0-0.8,0-1.6l0,0l0,0l0,0l0,0l0,0c0-0.8,0-0.8,0-1.6v-1.6c0.8-1.6,2.4-2.4,3.2-4l0,0l0,0c0,1.6,1.6,2.4,4,2.4
		c1.6,0,3.2-0.8,4-1.6H80v1.6c0,0.8,0.8,1.6,1.6,1.6H96c0.8,0,1.6-0.8,1.6-1.6v-6.4c0-0.8-0.8-1.6-1.6-1.6H81.6
		c-0.8,0-1.6,0.8-1.6,1.6v1.6h-1.6c0-0.8-1.6-1.6-4-1.6l0,0c8.8-15.2,14.4-28,13.6-30.4c0,0,0,0,0-0.8l0,0c-2.4,0-10.4,12-20,28l0,0
		h0.8c0,0,0,0.8-0.8,0.8h-0.8v-1.6c0.8,0,1.6-0.8,1.6-2.4c0-0.8-0.8-1.6-1.6-2.4v-0.8l0,0v-1.6l0,0c-0.8,0-0.8,0-1.6,0l0,0l0,0
		c-0.8-0.8-1.6-1.6-1.6-1.6l0,0l0,0l0,0l0,0v-2.4h-4v36c0.8,0,2.4-0.8,3.2-0.8l0,0l0,0L64,174l0.8,0.8c5.6,5.6,11.2,10.4,16,15.2
		l0,0l0,0c5.6,5.6,12,8.8,16,8.8c0.8,0,0.8,0,1.6,0c0,0,0.8,0,0.8-0.8C99.2,196.4,97.6,194.8,96,193.2z M67.2,146.8
		c0,0,0.8,0.8,0.8,1.6s0,0.8-0.8,1.6V146.8z M67.2,152.4C67.2,152.4,68,152.4,67.2,152.4C68,153.2,67.2,153.2,67.2,152.4L67.2,152.4
		z"/>
</g>
<g>
</g>
<g>
</g>
<g>
</g>
<g>
</g>
<g>
</g>
<g>
</g>
<g>
</g>
<g>
</g>
<g>
</g>
<g>
</g>
<g>
</g>
<g>
</g>
<g>
</g>
<g>
</g>
<g>
</g>
</svg>
